# xmcd CD database file
#
# Track frame offsets:
#	150
#	2614
#	17891
#	29275
#	43312
#	59668
#	75850
#	92824
#	108925
#	127985
#	156116
#	170955
#	188974
#
# Disc length: 2828 seconds
#
# Revision: 0
# Processed by: cddbd v1.5.2PL0 Copyright (c) Steve Scherf et al.
# Submitted via: CDex 1.51
#
DISCID=a40b0a0d
DTITLE=Melle Chic - Cabaret moderne
DYEAR=1900
DGENRE=Jazz
TTITLE0=Intro
TTITLE1=Mademoiselle chic
TTITLE2=Diako
TTITLE3=Love mon tendon
TTITLE4=Alice
TTITLE5=Eau de jazz
TTITLE6=Le le bye
TTITLE7=Impasse de la vignette
TTITLE8=Ni revin nin
TTITLE9=My one and only love
TTITLE10=La fée
TTITLE11=Jacky
TTITLE12=Mon homme
EXTD=
EXTT0=
EXTT1=
EXTT2=
EXTT3=
EXTT4=
EXTT5=
EXTT6=
EXTT7=
EXTT8=
EXTT9=
EXTT10=
EXTT11=
EXTT12=
PLAYORDER=
